<svg xmlns="http://www.w3.org/2000/svg" xmlns:xlink="http://www.w3.org/1999/xlink" xmlns:inkscape="http://www.inkscape.org/namespaces/inkscape" version="1.1" width="826" height="269" viewBox="0 100 960 400">
<defs>
<clipPath id="clip_0">
<path transform="matrix(1,0,0,-1,0,540)" d="M0 0H960V540H0Z"/>
</clipPath>
<clipPath id="clip_1">
<path transform="matrix(1,0,0,-1,0,540)" d="M146.2602 341.8508H381.66828V391.28498H146.2602Z"/>
</clipPath>
<clipPath id="clip_2">
<path transform="matrix(1,0,0,-1,0,540)" d="M151.3201 345.9136H376.60829V386.20268H151.3201Z"/>
</clipPath>
<clipPath id="clip_3">
<path transform="matrix(1,0,0,-1,0,540)" d="M0 0H960V540H0Z"/>
</clipPath>
<clipPath id="clip_4">
<path transform="matrix(1,0,0,-1,0,540)" d="M486.0956 341.8508H749.3677V391.28498H486.0956Z"/>
</clipPath>
<clipPath id="clip_5">
<path transform="matrix(1,0,0,-1,0,540)" d="M491.1556 345.9136H744.3078V386.20268H491.1556Z"/>
</clipPath>
<clipPath id="clip_6">
<path transform="matrix(1,0,0,-1,0,540)" d="M0 0H960V540H0Z"/>
</clipPath>
<clipPath id="clip_7">
<path transform="matrix(1,0,0,-1,0,540)" d="M210.9003 266.524H381.6683V304.5947H210.9003Z"/>
</clipPath>
<clipPath id="clip_8">
<path transform="matrix(1,0,0,-1,0,540)" d="M213.7057 264.9051H378.8628V305.19416H213.7057Z"/>
</clipPath>
<clipPath id="clip_9">
<path transform="matrix(1,0,0,-1,0,540)" d="M486.0956 266.524H658.30447V304.5947H486.0956Z"/>
</clipPath>
<clipPath id="clip_10">
<path transform="matrix(1,0,0,-1,0,540)" d="M488.9011 264.9051H655.499V305.19416H488.9011Z"/>
</clipPath>
<clipPath id="clip_11">
<path transform="matrix(1,0,0,-1,0,540)" d="M0 0H960V540H0Z"/>
</clipPath>
</defs>
<g clip-path="url(#clip_0)">
<path transform="matrix(1,0,0,-1,0,540)" d="M0 0H960V540H0Z" fill="#ffffff"/>
<path transform="matrix(1,0,0,1,46.20004,339.9064)" stroke-width="1.75" stroke-linecap="butt" stroke-dasharray="7,5.25" stroke-linejoin="round" fill="none" stroke="#44546a" d="M0 0H708.5999"/>
</g>
<g clip-path="url(#clip_1)">
<path transform="matrix(1,0,0,-1,0,540)" d="M155.5827 389.66H372.3458C376.597 389.66 380.0433 386.2137 380.0433 381.9625V351.1733C380.0433 346.9221 376.597 343.4758 372.3458 343.4758H155.5827C151.3315 343.4758 147.8852 346.9221 147.8852 351.1733V381.9625C147.8852 386.2137 151.3315 389.66 155.5827 389.66ZM155.5827 389.66" fill="#b4c7e7"/>
<path transform="matrix(1,0,0,1,147.8852,150.34)" stroke-width="1.25" stroke-linecap="butt" stroke-miterlimit="8" stroke-linejoin="miter" fill="none" stroke="#1d3053" d="M7.697516 0H224.4606C228.7118 0 232.1581 3.446295 232.1581 7.697516V38.48666C232.1581 42.73788 228.7118 46.18417 224.4606 46.18417H7.697516C3.446295 46.18417 0 42.73788 0 38.48666V7.697516C0 3.446295 3.446295 0 7.697516 0ZM7.697516 0"/>
</g>
<g clip-path="url(#clip_2)">
<text xml:space="preserve" transform="matrix(1 0 -0 1 223.6342 181.2309)" font-size="24" font-family="TimesNewRomanPSMT"><tspan y="0" x="0 21.340804 33.340806 45.340806 55.99201 62.65921 68.65921">Model 1</tspan></text>
</g>
<g clip-path="url(#clip_3)">
<path transform="matrix(1,0,0,-1,0,540)" d="M212.8434 331.7594 223.1765 342.0925 233.5094 331.7594H228.3429V314.5623H233.5094L223.1765 304.2293 212.8434 314.5623H218.0099V331.7594ZM212.8434 331.7594" fill="#767171"/>
<text xml:space="preserve" transform="matrix(1 0 -0 1 240.7602 224.43839)" font-size="24" font-family="TimesNewRomanPSMT"><tspan y="0" x="0 13.348802 24.000002 36 46.651205 58.651205 75.984 82.65121 89.31841 99.96961 111.96961 118.63682 125.30402 137.30402">PagedAttention</tspan></text>
</g>
<g clip-path="url(#clip_4)">
<path transform="matrix(1,0,0,-1,0,540)" d="M495.4182 389.66H740.0453C744.2965 389.66 747.7428 386.2137 747.7428 381.9625V351.1733C747.7428 346.9221 744.2965 343.4758 740.0453 343.4758H495.4182C491.1669 343.4758 487.7206 346.9221 487.7206 351.1733V381.9625C487.7206 386.2137 491.1669 389.66 495.4182 389.66ZM495.4182 389.66" fill="#ffe699"/>
<path transform="matrix(1,0,0,1,487.7206,150.34)" stroke-width="1.25" stroke-linecap="butt" stroke-miterlimit="8" stroke-linejoin="miter" fill="none" stroke="#1d3053" d="M7.697516 0H252.3246C256.5758 0 260.0221 3.446295 260.0221 7.697516V38.48666C260.0221 42.73788 256.5758 46.18417 252.3246 46.18417H7.697516C3.446295 46.18417 0 42.73788 0 38.48666V7.697516C0 3.446295 3.446295 0 7.697516 0ZM7.697516 0"/>
</g>
<g clip-path="url(#clip_5)">
<text xml:space="preserve" transform="matrix(1 0 -0 1 577.4016 181.2309)" font-size="24" font-family="TimesNewRomanPSMT"><tspan y="0" x="0 21.340804 33.340806 45.340806 55.99201 62.65921 68.65921">Model 2</tspan></text>
</g>
<g clip-path="url(#clip_6)">
<path transform="matrix(1,0,0,-1,0,540)" d="M487.7371 221.0643H656.8078V268.05744H487.7371Z" fill="#fff2cc"/>
<path transform="matrix(1,0,0,1,487.7371,271.9425)" stroke-width="1.25" stroke-linecap="butt" stroke-miterlimit="8" stroke-linejoin="miter" fill="none" stroke="#1d3053" d="M0 0H169.0707V46.99315H0Z"/>
<path transform="matrix(1,0,0,-1,0,540)" d="M489.0902 331.7594 499.4233 342.0925 509.7563 331.7594H504.5898V314.5623H509.7563L499.4233 304.2293 489.0902 314.5623H494.2568V331.7594ZM489.0902 331.7594" fill="#767171"/>
<text xml:space="preserve" transform="matrix(1 0 -0 1 516.9563 224.43839)" font-size="24" font-family="TimesNewRomanPSMT"><tspan y="0" x="0 13.348802 24.000002 36 46.651205 58.651205 75.984 82.65121 89.31841 99.96961 111.96961 118.63682 125.30402 137.30402">PagedAttention</tspan></text>
<path transform="matrix(1,0,0,-1,0,540)" d="M488.2272 221.1111H517.6462V268.10417H488.2272Z" fill="#bf9000"/>
<path transform="matrix(1,0,0,1,488.2272,271.8958)" stroke-width="1.25" stroke-linecap="butt" stroke-miterlimit="8" stroke-linejoin="miter" fill="none" stroke="#1d3053" d="M0 0H29.41898V46.99307H0Z"/>
<path transform="matrix(1,0,0,-1,0,540)" d="M517.1392 221.1409H545.21926V268.13398H517.1392Z" fill="#bf9000"/>
<path transform="matrix(1,0,0,1,517.1392,271.8661)" stroke-width="1.25" stroke-linecap="butt" stroke-miterlimit="8" stroke-linejoin="miter" fill="none" stroke="#1d3053" d="M0 0H28.08V46.99307H0Z"/>
<path transform="matrix(1,0,0,-1,0,540)" d="M545.3857 221.1409H573.4657V268.13398H545.3857Z" fill="#bf9000"/>
<path transform="matrix(1,0,0,1,545.3857,271.866)" stroke-width="1.25" stroke-linecap="butt" stroke-miterlimit="8" stroke-linejoin="miter" fill="none" stroke="#1d3053" d="M0 0H28.08V46.99307H0Z"/>
<path transform="matrix(1,0,0,-1,0,540)" d="M601.3542 221.1409H629.4342V268.13398H601.3542Z" fill="#bf9000"/>
<path transform="matrix(1,0,0,1,601.3542,271.866)" stroke-width="1.25" stroke-linecap="butt" stroke-miterlimit="8" stroke-linejoin="miter" fill="none" stroke="#1d3053" d="M0 0H28.08V46.99307H0Z"/>
<path transform="matrix(1,0,0,-1,0,540)" d="M628.7278 221.1409H656.8078V268.13398H628.7278Z" fill="#ffffff"/>
<path transform="matrix(1,0,0,1,628.7278,271.8661)" stroke-width="1.25" stroke-linecap="butt" stroke-miterlimit="8" stroke-linejoin="miter" fill="none" stroke="#1d3053" d="M0 0H28.08V46.99307H0Z"/>
<path transform="matrix(1,0,0,-1,0,540)" d="M663.634 221.1559H691.714V268.14897H663.634Z" fill="#ffc000"/>
<path transform="matrix(1,0,0,1,663.634,271.851)" stroke-width="1.25" stroke-linecap="butt" stroke-miterlimit="8" stroke-linejoin="miter" fill="none" stroke="#1d3053" d="M0 0H28.08V46.99307H0Z"/>
<path transform="matrix(1,0,0,-1,0,540)" d="M691.7305 221.1559H719.81057V268.14897H691.7305Z" fill="#ffc000"/>
<path transform="matrix(1,0,0,1,691.7305,271.851)" stroke-width="1.25" stroke-linecap="butt" stroke-miterlimit="8" stroke-linejoin="miter" fill="none" stroke="#1d3053" d="M0 0H28.08V46.99307H0Z"/>
</g>
<g clip-path="url(#clip_7)">
<path transform="matrix(1,0,0,-1,0,540)" d="M212.5253 268.149H380.0433V302.9697H212.5253Z" fill="#deebf7"/>
<path transform="matrix(1,0,0,1,212.5253,237.03022)" stroke-width="1.25" stroke-linecap="butt" stroke-miterlimit="8" stroke-linejoin="miter" fill="none" stroke="#1d3053" d="M0 0H167.518V34.82071H0Z"/>
</g>
<g clip-path="url(#clip_8)">
<text xml:space="preserve" transform="matrix(1 0 -0 1 248.2843 262.2394)" font-size="24" font-family="TimesNewRomanPS" font-weight="bold"><tspan y="0" x="0 13.348802 25.3488 36.000005 48.000005 58.651208 72.00001 82.65121">kvcached</tspan></text>
</g>
<g clip-path="url(#clip_9)">
<path transform="matrix(1,0,0,-1,0,540)" d="M487.7206 268.149H656.67947V302.9697H487.7206Z" fill="#fff2cc"/>
<path transform="matrix(1,0,0,1,487.7206,237.03022)" stroke-width="1.25" stroke-linecap="butt" stroke-miterlimit="8" stroke-linejoin="miter" fill="none" stroke="#1d3053" d="M0 0H168.9588V34.82071H0Z"/>
</g>
<g clip-path="url(#clip_10)">
<text xml:space="preserve" transform="matrix(1 0 -0 1 524.2001 262.2394)" font-size="24" font-family="TimesNewRomanPS" font-weight="bold"><tspan y="0" x="0 13.348802 25.3488 36.000005 48.000005 58.651208 72.00001 82.65121">kvcached</tspan></text>
</g>
<g clip-path="url(#clip_11)">
<text xml:space="preserve" transform="matrix(1 0 -0 1 38.6298 376.61183)" font-size="24" font-family="TimesNewRomanPSMT"><tspan y="0" x="0 13.348802 25.3488 37.3488 46.689599 53.3568 64.008 74.6592 81.32641">Physical </tspan></text>
<text xml:space="preserve" transform="matrix(1 0 -0 1 39.30362 403.61183)" font-size="24" font-family="TimesNewRomanPSMT"><tspan y="0" x="0 18.6672 29.3184 47.985605 59.985605 67.9776">memory</tspan></text>
<text xml:space="preserve" transform="matrix(1 0 -0 1 47.33685 294.3891)" font-size="24" font-family="TimesNewRomanPSMT"><tspan y="0" x="0 15.890401 22.5576 30.5496 37.216806 49.216806 59.868009 66.53521">Virtual </tspan></text>
<text xml:space="preserve" transform="matrix(1 0 -0 1 40.61614 321.3891)" font-size="24" font-family="TimesNewRomanPSMT"><tspan y="0" x="0 18.6672 29.3184 47.985605 59.985605 67.9776">memory</tspan></text>
<path transform="matrix(1,0,0,-1,0,540)" d="M147.8852 136.387H176.4266V180.82141H147.8852Z" fill="#215f9a"/>
<path transform="matrix(1,0,0,1,147.8852,359.1786)" stroke-width="1.25" stroke-linecap="butt" stroke-miterlimit="8" stroke-linejoin="miter" fill="none" stroke="#1d3053" d="M0 0H28.54142V44.43441H0Z"/>
<path transform="matrix(1,0,0,-1,0,540)" d="M212.782 219.8597H380.3V266.85285H212.782Z" fill="#deebf7"/>
<path transform="matrix(1,0,0,1,212.782,273.1472)" stroke-width="1.25" stroke-linecap="butt" stroke-miterlimit="8" stroke-linejoin="miter" fill="none" stroke="#1d3053" d="M0 0H167.518V46.99315H0Z"/>
<path transform="matrix(1,0,0,-1,0,540)" d="M148.3466 220.6165H176.4266V267.60957H148.3466Z" fill="#215f9a"/>
<path transform="matrix(1,0,0,1,148.3466,272.3905)" stroke-width="1.25" stroke-linecap="butt" stroke-miterlimit="8" stroke-linejoin="miter" fill="none" stroke="#1d3053" d="M0 0H28.08V46.99307H0Z"/>
<path transform="matrix(1,0,0,-1,0,540)" d="M176.5932 220.6165H204.6732V267.60957H176.5932Z" fill="#215f9a"/>
<path transform="matrix(1,0,0,1,176.5932,272.3904)" stroke-width="1.25" stroke-linecap="butt" stroke-miterlimit="8" stroke-linejoin="miter" fill="none" stroke="#1d3053" d="M0 0H28.08V46.99307H0Z"/>
<path transform="matrix(1,0,0,-1,0,540)" d="M240.4216 220.6848H268.5016V267.67787H240.4216Z" fill="#4e95d9"/>
<path transform="matrix(1,0,0,1,240.4216,272.3221)" stroke-width="1.25" stroke-linecap="butt" stroke-miterlimit="8" stroke-linejoin="miter" fill="none" stroke="#1d3053" d="M0 0H28.08V46.99307H0Z"/>
<path transform="matrix(1,0,0,-1,0,540)" d="M268.4938 220.6463H296.5738V267.63938H268.4938Z" fill="#4e95d9"/>
<path transform="matrix(1,0,0,1,268.4938,272.3606)" stroke-width="1.25" stroke-linecap="butt" stroke-miterlimit="8" stroke-linejoin="miter" fill="none" stroke="#1d3053" d="M0 0H28.08V46.99307H0Z"/>
<path transform="matrix(1,0,0,-1,0,540)" d="M296.7403 220.6464H324.82029V267.63948H296.7403Z" fill="#ffffff"/>
<path transform="matrix(1,0,0,1,296.7403,272.3606)" stroke-width="1.25" stroke-linecap="butt" stroke-miterlimit="8" stroke-linejoin="miter" fill="none" stroke="#1d3053" d="M0 0H28.08V46.99307H0Z"/>
<path transform="matrix(1,0,0,-1,0,540)" d="M324.1139 220.6463H352.19389V267.63938H324.1139Z" fill="#ffffff"/>
<path transform="matrix(1,0,0,1,324.1139,272.3606)" stroke-width="1.25" stroke-linecap="butt" stroke-miterlimit="8" stroke-linejoin="miter" fill="none" stroke="#1d3053" d="M0 0H28.08V46.99307H0Z"/>
<path transform="matrix(1,0,0,-1,0,540)" d="M352.3604 220.6464H380.4404V267.63948H352.3604Z" fill="#ffffff"/>
<path transform="matrix(1,0,0,1,352.3604,272.3606)" stroke-width="1.25" stroke-linecap="butt" stroke-miterlimit="8" stroke-linejoin="miter" fill="none" stroke="#1d3053" d="M0 0H28.08V46.99307H0Z"/>
<path transform="matrix(1,0,0,-1,0,540)" d="M212.782 220.6848H240.862V267.67787H212.782Z" fill="#4e95d9"/>
<path transform="matrix(1,0,0,1,212.782,272.3221)" stroke-width="1.25" stroke-linecap="butt" stroke-miterlimit="8" stroke-linejoin="miter" fill="none" stroke="#1d3053" d="M0 0H28.08V46.99307H0Z"/>
<path transform="matrix(1,0,0,-1,0,540)" d="M176.4266 136.387H204.96802V180.82141H176.4266Z" fill="#215f9a"/>
<path transform="matrix(1,0,0,1,176.4266,359.1786)" stroke-width="1.25" stroke-linecap="butt" stroke-miterlimit="8" stroke-linejoin="miter" fill="none" stroke="#1d3053" d="M0 0H28.54142V44.43441H0Z"/>
<path transform="matrix(1,0,0,-1,0,540)" d="M204.968 136.387H233.50943V180.82141H204.968Z" fill="#ffffff"/>
<path transform="matrix(1,0,0,1,204.968,359.1786)" stroke-width="1.25" stroke-linecap="butt" stroke-miterlimit="8" stroke-linejoin="miter" fill="none" stroke="#1d3053" d="M0 0H28.54142V44.43441H0Z"/>
<path transform="matrix(1,0,0,-1,0,540)" d="M233.7662 136.4255H262.30763V180.85993H233.7662Z" fill="#4e95d9"/>
<path transform="matrix(1,0,0,1,233.7662,359.1401)" stroke-width="1.25" stroke-linecap="butt" stroke-miterlimit="8" stroke-linejoin="miter" fill="none" stroke="#1d3053" d="M0 0H28.54142V44.43441H0Z"/>
<path transform="matrix(1,0,0,-1,0,540)" d="M262.0509 136.387H290.59233V180.82141H262.0509Z" fill="#ffffff"/>
<path transform="matrix(1,0,0,1,262.0509,359.1786)" stroke-width="1.25" stroke-linecap="butt" stroke-miterlimit="8" stroke-linejoin="miter" fill="none" stroke="#1d3053" d="M0 0H28.54142V44.43441H0Z"/>
<path transform="matrix(1,0,0,-1,0,540)" d="M290.2421 136.4254H318.7835V180.8598H290.2421Z" fill="#4e95d9"/>
<path transform="matrix(1,0,0,1,290.2421,359.1402)" stroke-width="1.25" stroke-linecap="butt" stroke-miterlimit="8" stroke-linejoin="miter" fill="none" stroke="#1d3053" d="M0 0H28.54142V44.43441H0Z"/>
<path transform="matrix(1,0,0,-1,0,540)" d="M319.1337 136.387H347.6751V180.82141H319.1337Z" fill="#ffffff"/>
<path transform="matrix(1,0,0,1,319.1337,359.1786)" stroke-width="1.25" stroke-linecap="butt" stroke-miterlimit="8" stroke-linejoin="miter" fill="none" stroke="#1d3053" d="M0 0H28.54142V44.43441H0Z"/>
<path transform="matrix(1,0,0,-1,0,540)" d="M347.6751 136.387H376.21653V180.82141H347.6751Z" fill="#ffffff"/>
<path transform="matrix(1,0,0,1,347.6751,359.1786)" stroke-width="1.25" stroke-linecap="butt" stroke-miterlimit="8" stroke-linejoin="miter" fill="none" stroke="#1d3053" d="M0 0H28.54142V44.43441H0Z"/>
<path transform="matrix(1,0,0,-1,0,540)" d="M376.5367 136.387H405.07814V180.82141H376.5367Z" fill="#bf9000"/>
<path transform="matrix(1,0,0,1,376.5367,359.1786)" stroke-width="1.25" stroke-linecap="butt" stroke-miterlimit="8" stroke-linejoin="miter" fill="none" stroke="#1d3053" d="M0 0H28.54142V44.43441H0Z"/>
<path transform="matrix(1,0,0,-1,0,540)" d="M405.0781 136.387H433.6195V180.82141H405.0781Z" fill="#4e95d9"/>
<path transform="matrix(1,0,0,1,405.0781,359.1786)" stroke-width="1.25" stroke-linecap="butt" stroke-miterlimit="8" stroke-linejoin="miter" fill="none" stroke="#1d3053" d="M0 0H28.54142V44.43441H0Z"/>
<path transform="matrix(1,0,0,-1,0,540)" d="M462.781 136.387H491.32243V180.82141H462.781Z" fill="#ffffff"/>
<path transform="matrix(1,0,0,1,462.781,359.1786)" stroke-width="1.25" stroke-linecap="butt" stroke-miterlimit="8" stroke-linejoin="miter" fill="none" stroke="#1d3053" d="M0 0H28.54142V44.43441H0Z"/>
<path transform="matrix(1,0,0,-1,0,540)" d="M491.3224 136.387H519.86386V180.82141H491.3224Z" fill="#ffffff"/>
<path transform="matrix(1,0,0,1,491.3224,359.1786)" stroke-width="1.25" stroke-linecap="butt" stroke-miterlimit="8" stroke-linejoin="miter" fill="none" stroke="#1d3053" d="M0 0H28.54142V44.43441H0Z"/>
<path transform="matrix(1,0,0,-1,0,540)" d="M519.8638 136.387H548.4052V180.82141H519.8638Z" fill="#bf9000"/>
<path transform="matrix(1,0,0,1,519.8638,359.1786)" stroke-width="1.25" stroke-linecap="butt" stroke-miterlimit="8" stroke-linejoin="miter" fill="none" stroke="#1d3053" d="M0 0H28.54142V44.43441H0Z"/>
<path transform="matrix(1,0,0,-1,0,540)" d="M548.4053 136.387H576.9467V180.82141H548.4053Z" fill="#bf9000"/>
<path transform="matrix(1,0,0,1,548.4053,359.1786)" stroke-width="1.25" stroke-linecap="butt" stroke-miterlimit="8" stroke-linejoin="miter" fill="none" stroke="#1d3053" d="M0 0H28.54142V44.43441H0Z"/>
<path transform="matrix(1,0,0,-1,0,540)" d="M576.9467 136.387H605.48818V180.82141H576.9467Z" fill="#bf9000"/>
<path transform="matrix(1,0,0,1,576.9467,359.1786)" stroke-width="1.25" stroke-linecap="butt" stroke-miterlimit="8" stroke-linejoin="miter" fill="none" stroke="#1d3053" d="M0 0H28.54142V44.43441H0Z"/>
<path transform="matrix(1,0,0,-1,0,540)" d="M605.4881 136.387H634.02957V180.82141H605.4881Z" fill="#ffffff"/>
<path transform="matrix(1,0,0,1,605.4881,359.1786)" stroke-width="1.25" stroke-linecap="butt" stroke-miterlimit="8" stroke-linejoin="miter" fill="none" stroke="#1d3053" d="M0 0H28.54142V44.43441H0Z"/>
<path transform="matrix(1,0,0,-1,0,540)" d="M634.5295 136.387H663.0709V180.82141H634.5295Z" fill="#bf9000"/>
<path transform="matrix(1,0,0,1,634.5295,359.1786)" stroke-width="1.25" stroke-linecap="butt" stroke-miterlimit="8" stroke-linejoin="miter" fill="none" stroke="#1d3053" d="M0 0H28.54142V44.43441H0Z"/>
<path transform="matrix(1,0,0,-1,0,540)" d="M663.2325 136.387H691.7739V180.82141H663.2325Z" fill="#ffc000"/>
<path transform="matrix(1,0,0,1,663.2325,359.1786)" stroke-width="1.25" stroke-linecap="butt" stroke-miterlimit="8" stroke-linejoin="miter" fill="none" stroke="#1d3053" d="M0 0H28.54142V44.43441H0Z"/>
<path transform="matrix(1,0,0,-1,0,540)" d="M691.9521 136.387H720.4935V180.82141H691.9521Z" fill="#ffc000"/>
<path transform="matrix(1,0,0,1,691.9521,359.1786)" stroke-width="1.25" stroke-linecap="butt" stroke-miterlimit="8" stroke-linejoin="miter" fill="none" stroke="#1d3053" d="M0 0H28.54142V44.43441H0Z"/>
<path transform="matrix(1,0,0,1,162.2175,320.0155)" stroke-width="1.5" stroke-linecap="butt" stroke-miterlimit="8" stroke-linejoin="miter" fill="none" stroke="#404040" d="M.1039823 0 0 38.53812"/>
<path transform="matrix(1,0,0,1,190.6513,320.01539)" stroke-width="1.5" stroke-linecap="butt" stroke-miterlimit="8" stroke-linejoin="miter" fill="none" stroke="#404040" d="M0 0 .02892285 38.53821"/>
<path transform="matrix(1,0,0,-1,0,540)" d="M572.9083 220.887H600.98837V267.88008H572.9083Z" fill="#ffffff"/>
<path transform="matrix(1,0,0,1,572.9083,272.1199)" stroke-width="1.25" stroke-linecap="butt" stroke-miterlimit="8" stroke-linejoin="miter" fill="none" stroke="#1d3053" d="M0 0H28.08V46.99307H0Z"/>
<text xml:space="preserve" transform="matrix(1 0 -0 1 774.9911 320.2461)" font-size="24" font-family="TimesNewRomanPSMT"><tspan y="0" x="0 21.340804 31.992003 50.659204 62.659204 70.6512 82.6512">Memory </tspan></text>
<text xml:space="preserve" transform="matrix(1 0 -0 1 788.995 347.2461)" font-size="24" font-family="TimesNewRomanPSMT"><tspan y="0" x="0 12 22.651202 34.6512 45.302404">pages</tspan></text>
<path transform="matrix(1,0,0,-1,0,540)" d="M720.1151 221.1559H748.1951V268.14897H720.1151Z" fill="#ffc000"/>
<path transform="matrix(1,0,0,1,720.1151,271.851)" stroke-width="1.25" stroke-linecap="butt" stroke-miterlimit="8" stroke-linejoin="miter" fill="none" stroke="#1d3053" d="M0 0H28.08V46.99307H0Z"/>
<path transform="matrix(1,0,0,-1,0,540)" d="M720.2628 136.387H748.1952V180.82141H720.2628Z" fill="#ffc000"/>
<path transform="matrix(1,0,0,1,720.2628,359.1786)" stroke-width="1.25" stroke-linecap="butt" stroke-miterlimit="8" stroke-linejoin="miter" fill="none" stroke="#1d3053" d="M0 0H27.93236V44.43441H0Z"/>
<path transform="matrix(1,0,0,1,677.5486,319.476)" stroke-width="1.5" stroke-linecap="butt" stroke-miterlimit="8" stroke-linejoin="miter" fill="none" stroke="#404040" d="M.07755756 0 0 39.07758"/>
<path transform="matrix(1,0,0,1,705.8973,319.476)" stroke-width="1.5" stroke-linecap="butt" stroke-miterlimit="8" stroke-linejoin="miter" fill="none" stroke="#404040" d="M0 0 .2054457 39.07758"/>
<path transform="matrix(1,0,0,1,734.1758,319.476)" stroke-width="1.5" stroke-linecap="butt" stroke-miterlimit="8" stroke-linejoin="miter" fill="none" stroke="#404040" d="M0 0 .03352663 39.07758"/>
<text xml:space="preserve" transform="matrix(1 0 -0 1 134.4302 235.61191)" font-size="24" font-family="TimesNewRomanPSMT"><tspan y="0" x="0 21.340804 33.340806 45.340806 55.99201 62.65921">Model </tspan></text>
<text xml:space="preserve" transform="matrix(1 0 -0 1 128.4302 262.6119)" font-size="24" font-family="TimesNewRomanPSMT"><tspan y="0" x="0 17.332802 27.984004 34.651208 46.651208 58.651208 65.31841">weights</tspan></text>
<path transform="matrix(1,0,0,1,380.6815,254.44062)" stroke-width="1.5" stroke-linecap="butt" stroke-miterlimit="8" stroke-linejoin="miter" fill="none" stroke="#262626" d="M4.639966 0H5.389966C37.26803 0 69.14609 0 101.0242 0H101.7742"/>
<path transform="matrix(1,0,0,-1,0,540)" d="M487.0956 285.5594 478.974 290.2873C478.4569 290.5883 477.7937 290.4132 477.4927 289.8961 477.1917 289.379 477.3669 288.7158 477.884 288.4148L482.789 285.5594 477.884 282.704C477.3669 282.403 477.1917 281.7398 477.4927 281.2227 477.7937 280.7056 478.4569 280.5305 478.974 280.8315ZM487.0956 285.5594" fill="#262626"/>
<path transform="matrix(1,0,0,-1,0,540)" d="M380.6815 285.5594 388.8032 280.8315C389.3202 280.5305 389.9834 280.7056 390.2844 281.2227 390.5854 281.7398 390.4103 282.403 389.8932 282.704L384.9882 285.5594 389.8932 288.4148C390.4103 288.7158 390.5854 289.379 390.2844 289.8961 389.9834 290.4132 389.3202 290.5883 388.8032 290.2873ZM380.6815 285.5594" fill="#262626"/>
<text xml:space="preserve" transform="matrix(1 0 -0 1 406.0398 279.4294)" font-size="24" font-family="TimesNewRomanPSMT"><tspan y="0" x="0 17.332802 34.665605 56.006406">OOM </tspan></text>
<text xml:space="preserve" transform="matrix(1 0 -0 1 385.4031 306.42939)" font-size="24" font-family="TimesNewRomanPSMT"><tspan y="0" x="0 10.651201 22.651202 34.6512 41.3184 53.3184 63.969606 75.969608 86.620807">avoidance</tspan></text>
<path transform="matrix(1,0,0,-1,0,540)" d="M433.8489 136.387H462.39033V180.82141H433.8489Z" fill="#ffffff"/>
<path transform="matrix(1,0,0,1,433.8489,359.1786)" stroke-width="1.25" stroke-linecap="butt" stroke-miterlimit="8" stroke-linejoin="miter" fill="none" stroke="#1d3053" d="M0 0H28.54142V44.43441H0Z"/>
<text xml:space="preserve" transform="matrix(1 0 -0 1 679.4974 235.61191)" font-size="24" font-family="TimesNewRomanPSMT"><tspan y="0" x="0 21.340804 33.340806 45.340806 55.99201 62.65921">Model </tspan></text>
<text xml:space="preserve" transform="matrix(1 0 -0 1 673.4974 262.6119)" font-size="24" font-family="TimesNewRomanPSMT"><tspan y="0" x="0 17.332802 27.984004 34.651208 46.651208 58.651208 65.31841">weights</tspan></text>
<path transform="matrix(-.7256473,.6880669,-.6880669,-.7256473,776.7601,342.6667)" stroke-width="1.5" stroke-linecap="butt" stroke-dasharray="6,4.5" stroke-miterlimit="8" stroke-linejoin="miter" fill="none" stroke="#262626" d="M0 0H49.61331 50.36331"/>
<path transform="matrix(1,0,0,-1,0,540)" d="M741.8954 160.4224 735.9159 158.6043 738.0491 164.4788ZM741.8954 160.4224" fill="#262626"/>
<path transform="matrix(-.8269835,-.5622262,.5622262,-.8269835,775.5185,327.5901)" stroke-width="1.5" stroke-linecap="butt" stroke-dasharray="6,4.5" stroke-miterlimit="8" stroke-linejoin="miter" fill="none" stroke="#262626" d="M0 0H38.77045 39.52045"/>
<path transform="matrix(1,0,0,-1,0,540)" d="M740.9887 232.5053 737.9373 237.9596 744.1315 237.1282ZM740.9887 232.5053" fill="#262626"/>
<path transform="matrix(1,0,0,1,258.6603,320.65333)" stroke-width="1.5" stroke-linecap="butt" stroke-miterlimit="8" stroke-linejoin="miter" fill="none" stroke="#404040" d="M0 0 47.65529 38.50624"/>
<path transform="matrix(1,0,0,1,225.9431,320.4346)" stroke-width="1.5" stroke-linecap="butt" stroke-miterlimit="8" stroke-linejoin="miter" fill="none" stroke="#404040" d="M0 0 21.79686 39.16889"/>
<path transform="matrix(1,0,0,1,281.4273,321.0774)" stroke-width="1.5" stroke-linecap="butt" stroke-miterlimit="8" stroke-linejoin="miter" fill="none" stroke="#404040" d="M0 0 140.1001 37.65785"/>
<path transform="matrix(1,0,0,1,389.3871,320.3295)" stroke-width="1.5" stroke-linecap="butt" stroke-miterlimit="8" stroke-linejoin="miter" fill="none" stroke="#404040" d="M118.665 0 0 39.15383"/>
<path transform="matrix(1,0,0,1,531.6121,319.1585)" stroke-width="1.5" stroke-linecap="butt" stroke-miterlimit="8" stroke-linejoin="miter" fill="none" stroke="#404040" d="M0 0 5.044851 41.4957"/>
<path transform="matrix(1,0,0,1,558.758,319.5689)" stroke-width="1.5" stroke-linecap="butt" stroke-miterlimit="8" stroke-linejoin="miter" fill="none" stroke="#404040" d="M0 0 4.417341 38.81749"/>
<path transform="matrix(1,0,0,1,617.0767,319.75593)" stroke-width="1.5" stroke-linecap="butt" stroke-miterlimit="8" stroke-linejoin="miter" fill="none" stroke="#404040" d="M0 0 32.34907 40.30092"/>
</g>
</svg>
